# xmcd
#
# Track frame offsets:
#	150
#	20032
#	44518
#	68852
#	89428
#	111546
#	133448
#	154145
#	172935
#
# Disc length: 2500 seconds
#
# Revision: 0
# Processed by: cddbd v1.5.2PL0 Copyright (c) Steve Scherf et al.
# Submitted via: audiograbber 1.83.01
#
DISCID=8309c209
DTITLE=Marianne Pasts - Inspiration
DYEAR=2007
DGENRE=Folk-Rock
TTITLE0=Spark
TTITLE1=Inspiration
TTITLE2=Golden Rings
TTITLE3=London Underground
TTITLE4=Rainy Days In Paris
TTITLE5=The Band Is Playing
TTITLE6=Mountain
TTITLE7=Trust In Me
TTITLE8=Mountain Instrumental
EXTD=
EXTT0=
EXTT1=
EXTT2=
EXTT3=
EXTT4=
EXTT5=
EXTT6=
EXTT7=
EXTT8=
PLAYORDER=
